<?xml version='1.0' encoding='utf-8'?>
<svg xmlns="http://www.w3.org/2000/svg" width="420mm" height="594mm" viewBox="0 0 420 594">
  <title>acircles: 7 x 21, spacing 18 mm</title>
  <rect x="0" y="0" width="420" height="594" fill="black" stroke="none" />
  <g fill="white" stroke="none">
    <circle cx="93" cy="117" r="7.2" />
    <circle cx="129" cy="117" r="7.2" />
    <circle cx="165" cy="117" r="7.2" />
    <circle cx="201" cy="117" r="7.2" />
    <circle cx="237" cy="117" r="7.2" />
    <circle cx="273" cy="117" r="7.2" />
    <circle cx="309" cy="117" r="7.2" />
    <circle cx="111" cy="135" r="7.2" />
    <circle cx="147" cy="135" r="7.2" />
    <circle cx="183" cy="135" r="7.2" />
    <circle cx="219" cy="135" r="7.2" />
    <circle cx="255" cy="135" r="7.2" />
    <circle cx="291" cy="135" r="7.2" />
    <circle cx="327" cy="135" r="7.2" />
    <circle cx="93" cy="153" r="7.2" />
    <circle cx="129" cy="153" r="7.2" />
    <circle cx="165" cy="153" r="7.2" />
    <circle cx="201" cy="153" r="7.2" />
    <circle cx="237" cy="153" r="7.2" />
    <circle cx="273" cy="153" r="7.2" />
    <circle cx="309" cy="153" r="7.2" />
    <circle cx="111" cy="171" r="7.2" />
    <circle cx="147" cy="171" r="7.2" />
    <circle cx="183" cy="171" r="7.2" />
    <circle cx="219" cy="171" r="7.2" />
    <circle cx="255" cy="171" r="7.2" />
    <circle cx="291" cy="171" r="7.2" />
    <circle cx="327" cy="171" r="7.2" />
    <circle cx="93" cy="189" r="7.2" />
    <circle cx="129" cy="189" r="7.2" />
    <circle cx="165" cy="189" r="7.2" />
    <circle cx="201" cy="189" r="7.2" />
    <circle cx="237" cy="189" r="7.2" />
    <circle cx="273" cy="189" r="7.2" />
    <circle cx="309" cy="189" r="7.2" />
    <circle cx="111" cy="207" r="7.2" />
    <circle cx="147" cy="207" r="7.2" />
    <circle cx="183" cy="207" r="7.2" />
    <circle cx="219" cy="207" r="7.2" />
    <circle cx="255" cy="207" r="7.2" />
    <circle cx="291" cy="207" r="7.2" />
    <circle cx="327" cy="207" r="7.2" />
    <circle cx="93" cy="225" r="7.2" />
    <circle cx="129" cy="225" r="7.2" />
    <circle cx="165" cy="225" r="7.2" />
    <circle cx="201" cy="225" r="7.2" />
    <circle cx="237" cy="225" r="7.2" />
    <circle cx="273" cy="225" r="7.2" />
    <circle cx="309" cy="225" r="7.2" />
    <circle cx="111" cy="243" r="7.2" />
    <circle cx="147" cy="243" r="7.2" />
    <circle cx="183" cy="243" r="7.2" />
    <circle cx="219" cy="243" r="7.2" />
    <circle cx="255" cy="243" r="7.2" />
    <circle cx="291" cy="243" r="7.2" />
    <circle cx="327" cy="243" r="7.2" />
    <circle cx="93" cy="261" r="7.2" />
    <circle cx="129" cy="261" r="7.2" />
    <circle cx="165" cy="261" r="7.2" />
    <circle cx="201" cy="261" r="7.2" />
    <circle cx="237" cy="261" r="7.2" />
    <circle cx="273" cy="261" r="7.2" />
    <circle cx="309" cy="261" r="7.2" />
    <circle cx="111" cy="279" r="7.2" />
    <circle cx="147" cy="279" r="7.2" />
    <circle cx="183" cy="279" r="7.2" />
    <circle cx="219" cy="279" r="7.2" />
    <circle cx="255" cy="279" r="7.2" />
    <circle cx="291" cy="279" r="7.2" />
    <circle cx="327" cy="279" r="7.2" />
    <circle cx="93" cy="297" r="7.2" />
    <circle cx="129" cy="297" r="7.2" />
    <circle cx="165" cy="297" r="7.2" />
    <circle cx="201" cy="297" r="7.2" />
    <circle cx="237" cy="297" r="7.2" />
    <circle cx="273" cy="297" r="7.2" />
    <circle cx="309" cy="297" r="7.2" />
    <circle cx="111" cy="315" r="7.2" />
    <circle cx="147" cy="315" r="7.2" />
    <circle cx="183" cy="315" r="7.2" />
    <circle cx="219" cy="315" r="7.2" />
    <circle cx="255" cy="315" r="7.2" />
    <circle cx="291" cy="315" r="7.2" />
    <circle cx="327" cy="315" r="7.2" />
    <circle cx="93" cy="333" r="7.2" />
    <circle cx="129" cy="333" r="7.2" />
    <circle cx="165" cy="333" r="7.2" />
    <circle cx="201" cy="333" r="7.2" />
    <circle cx="237" cy="333" r="7.2" />
    <circle cx="273" cy="333" r="7.2" />
    <circle cx="309" cy="333" r="7.2" />
    <circle cx="111" cy="351" r="7.2" />
    <circle cx="147" cy="351" r="7.2" />
    <circle cx="183" cy="351" r="7.2" />
    <circle cx="219" cy="351" r="7.2" />
    <circle cx="255" cy="351" r="7.2" />
    <circle cx="291" cy="351" r="7.2" />
    <circle cx="327" cy="351" r="7.2" />
    <circle cx="93" cy="369" r="7.2" />
    <circle cx="129" cy="369" r="7.2" />
    <circle cx="165" cy="369" r="7.2" />
    <circle cx="201" cy="369" r="7.2" />
    <circle cx="237" cy="369" r="7.2" />
    <circle cx="273" cy="369" r="7.2" />
    <circle cx="309" cy="369" r="7.2" />
    <circle cx="111" cy="387" r="7.2" />
    <circle cx="147" cy="387" r="7.2" />
    <circle cx="183" cy="387" r="7.2" />
    <circle cx="219" cy="387" r="7.2" />
    <circle cx="255" cy="387" r="7.2" />
    <circle cx="291" cy="387" r="7.2" />
    <circle cx="327" cy="387" r="7.2" />
    <circle cx="93" cy="405" r="7.2" />
    <circle cx="129" cy="405" r="7.2" />
    <circle cx="165" cy="405" r="7.2" />
    <circle cx="201" cy="405" r="7.2" />
    <circle cx="237" cy="405" r="7.2" />
    <circle cx="273" cy="405" r="7.2" />
    <circle cx="309" cy="405" r="7.2" />
    <circle cx="111" cy="423" r="7.2" />
    <circle cx="147" cy="423" r="7.2" />
    <circle cx="183" cy="423" r="7.2" />
    <circle cx="219" cy="423" r="7.2" />
    <circle cx="255" cy="423" r="7.2" />
    <circle cx="291" cy="423" r="7.2" />
    <circle cx="327" cy="423" r="7.2" />
    <circle cx="93" cy="441" r="7.2" />
    <circle cx="129" cy="441" r="7.2" />
    <circle cx="165" cy="441" r="7.2" />
    <circle cx="201" cy="441" r="7.2" />
    <circle cx="237" cy="441" r="7.2" />
    <circle cx="273" cy="441" r="7.2" />
    <circle cx="309" cy="441" r="7.2" />
    <circle cx="111" cy="459" r="7.2" />
    <circle cx="147" cy="459" r="7.2" />
    <circle cx="183" cy="459" r="7.2" />
    <circle cx="219" cy="459" r="7.2" />
    <circle cx="255" cy="459" r="7.2" />
    <circle cx="291" cy="459" r="7.2" />
    <circle cx="327" cy="459" r="7.2" />
    <circle cx="93" cy="477" r="7.2" />
    <circle cx="129" cy="477" r="7.2" />
    <circle cx="165" cy="477" r="7.2" />
    <circle cx="201" cy="477" r="7.2" />
    <circle cx="237" cy="477" r="7.2" />
    <circle cx="273" cy="477" r="7.2" />
    <circle cx="309" cy="477" r="7.2" />
  </g>
</svg>